<svg xmlns="http://www.w3.org/2000/svg" viewBox="0 0 318.32 1387.42"><defs><style>.cls-1{fill:#ed295b;}</style></defs><g id="Layer_2" data-name="Layer 2"><g id="Layer_1-2" data-name="Layer 1"><path class="cls-1" d="M301.53,1370.86,55.27,1151.21A49.38,49.38,0,0,1,47,1087.38L306.21,697a66.42,66.42,0,0,0-9.36-84.72L37,363a46.18,46.18,0,0,1-2.63-64.1L294.06,5.3l.75.67L35.1,299.59a45.18,45.18,0,0,0,2.57,62.71L297.54,611.54a67.41,67.41,0,0,1,9.5,86L47.88,1087.93a48.36,48.36,0,0,0,8.06,62.53l246.25,219.66Z"/><path class="cls-1" d="M287.07,1387.42,37.37,1165.57a65.79,65.79,0,0,1-11.16-85.5L285.9,687.87a48.74,48.74,0,0,0-7-62.19L20.4,378.45a65.59,65.59,0,0,1-3.8-91.15L270.92,0l12.73,11.27L29.33,298.56a48.65,48.65,0,0,0,2.82,67.6L290.69,613.39a65.75,65.75,0,0,1,9.39,83.87L40.39,1089.46a49,49,0,0,0,8.27,63.4l249.7,221.85Z"/></g></g></svg>