<?xml version="1.0" encoding="utf-8"?>
<!-- Generator: Adobe Illustrator 26.0.2, SVG Export Plug-In . SVG Version: 6.00 Build 0)  -->
<svg version="1.1" xmlns="http://www.w3.org/2000/svg" xmlns:xlink="http://www.w3.org/1999/xlink" x="0px" y="0px"
	 viewBox="0 0 754.3 298.3" style="enable-background:new 0 0 754.3 298.3;" xml:space="preserve">
<style type="text/css">
	.st0{display:none;}
	.st1{display:inline;}
	.st2{fill:none;stroke:#FF0000;stroke-width:0.25;stroke-miterlimit:10;}
	.st3{fill:none;stroke:#FF0000;stroke-width:0.25;stroke-miterlimit:10;stroke-dasharray:5,2;}
	.st4{display:inline;fill:none;stroke:#FF0000;stroke-width:0.25;stroke-miterlimit:10;stroke-dasharray:5,2;}
	.st5{fill:none;stroke:#FF0000;stroke-width:0.25;stroke-miterlimit:10;stroke-dasharray:4.9694,1.9878;}
	.st6{fill:#FF0000;}
	.st7{fill:none;stroke:#FF0000;stroke-width:0.25;stroke-miterlimit:10;stroke-dasharray:5.024,2.0096;}
	.st8{fill:none;stroke:#FF0000;stroke-width:3;stroke-linecap:round;stroke-miterlimit:10;}
	.st9{fill:none;stroke:#FF0000;stroke-width:3;stroke-linecap:round;stroke-miterlimit:10;stroke-dasharray:6.9674,6.9674;}
	.st10{fill:none;stroke:#FF0000;stroke-width:3;stroke-linecap:round;stroke-miterlimit:10;stroke-dasharray:6.9812,6.9812;}
	.st11{display:inline;fill:none;stroke:#FF0000;stroke-width:3;stroke-linecap:round;stroke-miterlimit:10;stroke-dasharray:7,7;}
	.st12{display:inline;fill:none;stroke:#FF0000;stroke-width:40;stroke-linecap:round;stroke-miterlimit:10;}
	.st13{fill:#AFAFAF;}
	.st14{fill:#7F7F7F;}
	.st15{fill:#CCCCCC;}
	.st16{opacity:0.3;fill:#7F7F7F;}
	.st17{fill:#E8E8E8;}
	.st18{fill:#4F4F4F;}
</style>
<g id="Layer_1" class="st0">
</g>
<g id="bg">
	<path class="st13" d="M18.3,158.6v29.6c0,0,67.6,59.7,192.1,59.7c137.3,0,178.4,21.8,178.4,21.8l346.5,0v-28.4L349,198.1
		L18.3,158.6z"/>
</g>
<g id="bg2">
	<rect x="388.7" y="241.4" class="st14" width="346.6" height="28.2"/>
</g>
<g id="floor">
	<path class="st15" d="M205.1,145.6c0,0,46.3,22,177,21.7c138.3-0.3,248.3,26.1,353.4,74.1l-345.4-0.7c0,0-29.7-15.5-120-18
		c-144-4-171.4-12-251.9-64.1L205.1,145.6z"/>
</g>
<g id="box1">
	<polygon class="st14" points="219.6,217.6 146,197.7 146,102.1 219.6,122 	"/>
</g>
<g id="box2">
	<polygon class="st13" points="218.4,217.6 292,197.7 292,102.1 218.4,122 	"/>
</g>
<g id="box3">
	<polygon class="st15" points="146,102.1 220.9,79.4 292,102.1 218.4,122 	"/>
</g>
<g id="cylinder1">
	<path class="st13" d="M454.5,145c-4.4-25.1-12.1-43.9-12.1-43.9h-68.2c0,0-5.9,13.4-12,42.9c-6.1,29.5-4.8,60-4.8,60
		c0,7.3,22.8,13.2,50.9,13.2s50.9-5.9,50.9-13.2C459.2,204,459,170.4,454.5,145z"/>
</g>
<g id="cylinder2">
	<ellipse class="st15" cx="408.3" cy="101.1" rx="34.1" ry="7.6"/>
</g>
<g id="screen1">
	<rect x="388.7" y="19.4" class="st16" width="348.2" height="222.3"/>
</g>
<g id="screenOutline">
	<path class="st17" d="M388.5,18.2v224.1h349V18.2H388.5z M680.2,175.2l-0.8,0.7l56.3,65.5h-345L599.7,176l-0.3-1l-209.9,65.6V19.8
		l209.9,76l0.3-0.9L390.8,19.2h345L679.5,95l0.8,0.6L736.5,20v220.6L680.2,175.2z"/>
</g>
<g id="fire">
	<path class="st17" d="M544.2,105.2c-2.1,5.7-4.5,19.9,4.5,20.2c9.1-6,10.9-10.3,10.6-16.9c-0.3-6.6-0.3-35.6,37.7-26.2
		c-8.7,7.8-14.2,15.4-10.9,26.6c3.3,11.2,14,25.9,1.1,41.9s-38.1,14.1-50.2-1.2C527.6,137.8,525.2,117.6,544.2,105.2z"/>
	<path class="st17" d="M528.1,159.8c0,0,11,11.8,36.1,11.8s34.5-15.1,34.5-15.1s0.9,29.3-35.4,29
		C527.2,185.2,528.1,159.8,528.1,159.8z"/>
	<path class="st17" d="M546,194.2c0,0,6.7,1.8,17.2,1.5c10.6-0.3,17.6-3.2,17.6-3.2s-6.2,15.1-17,15.5
		C553.2,208.5,546,194.2,546,194.2z"/>
</g>
<g id="camLens1">
	<rect x="599.6" y="95.3" class="st14" width="80.3" height="80.3"/>
</g>
<g id="camLens2">
	<polygon class="st15" points="599.6,95.3 623.4,111.8 623.9,160.1 599.6,175.6 	"/>
</g>
<g id="camLens3">
	<path class="st18" d="M679.9,95.3L664.1,111c0,0,1.4,52.3,1.4,53.4s14.3,11.1,14.3,11.1V95.3z"/>
</g>
<g id="camBody1">
	<polygon class="st13" points="623.9,160.1 649.6,171.9 649.6,119.3 623.2,111.6 	"/>
</g>
<g id="camBodyTop">
	<polygon class="st15" points="623.4,111.8 666.1,109.6 696.4,119.3 649.6,119.3 	"/>
</g>
<g id="camBodyBack">
	<rect x="649.6" y="119.3" class="st14" width="46.9" height="52.6"/>
</g>
<g id="camLensBack">
	<polygon class="st14" points="645.7,112.7 637.3,139.9 630.5,139.9 638.9,112.4 	"/>
</g>
<g id="camLensSide">
	<polygon class="st15" points="630.5,139.9 623.7,133.1 630.5,106.7 638.9,112.4 	"/>
</g>
<g id="camLensTop">
	<polygon class="st18" points="638.9,112.4 645.7,112.7 637.5,107.3 630.5,106.7 	"/>
</g>
</svg>
