<svg xmlns="http://www.w3.org/2000/svg" viewBox="0 0 87.13 57.22"><defs><style>.cls-1{fill:currentColor;}</style></defs><g id="Layer_2" data-name="Layer 2"><g id="Layer_16" data-name="Layer 16"><rect class="cls-1" x="29.24" y="14.35" width="21.33" height="7.5" rx="3.35"/><rect class="cls-1" x="29.24" y="35.1" width="21.33" height="7.5" rx="3.35"/><rect class="cls-1" x="29.24" y="24.65" width="25.75" height="7.5" rx="3.35"/><path class="cls-1" d="M86.06,27.13l-9.17-7.39-8.68,0c-.25-.77-.53-1.54-.85-2.29a28.63,28.63,0,0,0-52.72,0c-.34.8-.64,1.6-.9,2.41l-10.62,0c-4.29,0-4,18.3,0,18.35,1.34,0,5.37,0,10.91-.06.19.52.39,1,.61,1.56a28.63,28.63,0,0,0,52.72,0c.22-.53.42-1,.61-1.59h9.11l9-6.78A2.64,2.64,0,0,0,86.06,27.13ZM6.49,34.64c-.69-.11-1-4.62-.08-5h6A28.15,28.15,0,0,0,13,34.61Zm56.27-4.85a21.91,21.91,0,0,1-2.17,8.37,21.79,21.79,0,0,1-39.17,0A21.45,21.45,0,0,1,20,34.57a21.82,21.82,0,0,1-.8-4.89c0-.35,0-.71,0-1.07A21.83,21.83,0,0,1,41,6.81a21.8,21.8,0,0,1,21.79,21.8C62.79,29,62.78,29.4,62.76,29.79Zm14,4.39-7.72,0a28.35,28.35,0,0,0,.52-4.43h5.94c.87,0,.71-3,.88-5.27,0-.33.16-.66.44-.49a20.16,20.16,0,0,1,2.52,2.27,15.1,15.1,0,0,0,.15,6A14.14,14.14,0,0,1,76.78,34.18Z"/></g></g></svg>