<svg xmlns="http://www.w3.org/2000/svg" viewBox="0 0 50.24 60.15"><defs><style>.cls-1{fill:currentColor;}</style></defs><g id="Layer_2" data-name="Layer 2"><g id="Layer_16" data-name="Layer 16"><path class="cls-1" d="M3.5,60.15a3.48,3.48,0,0,1-1.57-.37A3.53,3.53,0,0,1,0,56.59C.32,38.59.65,9.32.23,4.75A3.51,3.51,0,0,1,1,1,3.54,3.54,0,0,1,3.77,0h43a3.5,3.5,0,0,1,3.5,3.5V56.65a3.5,3.5,0,0,1-5.64,2.77l-19.48-15-19.48,15A3.53,3.53,0,0,1,3.5,60.15ZM25.12,36.48a3.55,3.55,0,0,1,2.14.73l16,12.32V7H7.35c0,1.33,0,3,.06,4.93,0,4.44,0,10.6-.06,18.31-.06,7-.16,14.13-.23,19.19L23,37.21A3.55,3.55,0,0,1,25.12,36.48Z"/></g></g></svg>