# Blender 3.3.0
# www.blender.org
mtllib Moon.mtl
o Moon
v 0.184000 -0.000289 0.081930
v 0.141520 0.136434 0.062281
v 0.056283 0.212931 0.040536
v -0.053815 0.233107 0.020546
v -0.132130 0.179972 0.000085
v 0.146576 -0.131024 0.063188
v 0.182490 -0.000147 0.040961
v 0.142093 0.136576 0.020453
v 0.054403 0.212546 -0.000587
v -0.057843 0.236344 -0.020423
v 0.079800 -0.202105 0.041674
v 0.147149 -0.130881 0.021359
v 0.180979 -0.000004 -0.000008
v 0.142666 0.136719 -0.021376
v 0.052523 0.214353 -0.041711
v -0.028697 -0.222337 0.020406
v 0.078314 -0.195667 0.000571
v 0.147722 -0.130738 -0.020469
v 0.179468 0.000139 -0.040978
v 0.143239 0.136862 -0.063205
v -0.124791 -0.183092 -0.000102
v -0.032330 -0.222442 -0.020563
v 0.076828 -0.199458 -0.040532
v 0.148295 -0.130596 -0.062298
v 0.177957 0.000281 -0.081947
vn 0.4334 0.0051 -0.9012
vn 0.4581 0.2696 -0.8470
vn 0.2420 0.4919 -0.8363
vn -0.0841 0.4637 -0.8820
vn 0.5552 -0.2850 -0.7814
vn 0.4684 0.0059 -0.8835
vn 0.4264 0.2516 -0.8688
vn 0.2543 0.5196 -0.8157
vn 0.2541 -0.4798 -0.8398
vn 0.4976 -0.2635 -0.8264
vn 0.5050 0.0066 -0.8631
vn 0.4023 0.2354 -0.8847
vn -0.0293 -0.5183 -0.8547
vn 0.2838 -0.5565 -0.7809
vn 0.4788 -0.2481 -0.8421
vn 0.5431 0.0074 -0.8396
vn 0.5130 0.0126 0.8583
vn 0.4935 0.0123 0.8697
vn 0.4973 -0.2539 0.8296
vn 0.4227 0.2535 0.8701
vn 0.4312 0.2571 0.8648
vn 0.5226 -0.2629 0.8110
vn 0.2571 -0.5057 0.8235
vn 0.5058 0.0125 0.8626
vn 0.2602 0.5159 0.8161
vn 0.2830 -0.5523 0.7841
vn 0.4993 0.0124 0.8663
vn 0.2580 0.5228 0.8125
vn -0.0353 -0.5251 0.8503
vn 0.4913 -0.2553 0.8328
vn 0.4235 0.2545 0.8694
vn -0.0704 0.4216 0.9040
s 0
f 1//1 6//1 2//1
f 2//2 7//2 3//2
f 3//3 8//3 4//3
f 4//4 9//4 5//4
f 6//5 11//5 7//5
f 7//6 12//6 8//6
f 8//7 13//7 9//7
f 9//8 14//8 10//8
f 11//9 16//9 12//9
f 12//10 17//10 13//10
f 13//11 18//11 14//11
f 14//12 19//12 15//12
f 16//13 21//13 17//13
f 17//14 22//14 18//14
f 18//15 23//15 19//15
f 19//16 24//16 20//16
f 20//17 24//17 25//17
f 2//18 6//18 7//18
f 19//19 23//19 24//19
f 15//20 19//20 20//20
f 3//21 7//21 8//21
f 7//22 11//22 12//22
f 18//23 22//23 23//23
f 14//24 18//24 19//24
f 10//25 14//25 15//25
f 12//26 16//26 17//26
f 8//27 12//27 13//27
f 4//28 8//28 9//28
f 17//29 21//29 22//29
f 13//30 17//30 18//30
f 9//31 13//31 14//31
f 5//32 9//32 10//32
