<svg xmlns="http://www.w3.org/2000/svg" viewBox="0 0 930.29 930.29"><defs><style>.cls-1{fill:#ea8147;}.cls-2{fill:#fbdb95;}</style></defs><g id="Layer_2" data-name="Layer 2"><g id="Layer_2-2" data-name="Layer 2"><path class="cls-1" d="M238.73,512.24c116-35,127.29,26.23,225.77,26.89,89.11.6,109.75-61.86,225.78-26.89,117,35.28,145.61,139.57,149.6,210.19.26,4.56.43,10.63.54,17.58a463.12,463.12,0,0,0,89.87-274.87C930.29,208.25,722,0,465.14,0S0,208.25,0,465.14A463.1,463.1,0,0,0,88.62,738.31c.11-6.24.28-11.7.51-15.88C93.12,651.81,121.7,547.52,238.73,512.24Z"/><path class="cls-2" d="M465.14,930.29c154.07,0,290.63-74.91,375.28-190.28-.11-7-.28-13-.54-17.58-4-70.62-32.57-174.91-149.6-210.19-116-35-136.67,27.49-225.78,26.89-98.48-.66-109.74-61.86-225.77-26.89-117,35.28-145.61,139.57-149.6,210.19-.23,4.18-.4,9.64-.51,15.88C173.17,854.64,310.32,930.29,465.14,930.29Z"/><ellipse class="cls-2" cx="464.51" cy="340.68" rx="162.09" ry="180.27"/></g></g></svg>