<svg xmlns="http://www.w3.org/2000/svg" viewBox="0 0 449.71 449.71"><defs><style>.cls-1,.cls-5{fill:#18665b;}.cls-1{opacity:0.5;}.cls-2{fill:none;stroke:#18665b;stroke-miterlimit:10;stroke-width:20px;}.cls-3{fill:#ea8147;}.cls-4{fill:#fbdb95;}</style></defs><g id="Layer_2" data-name="Layer 2"><g id="Layer_1-2" data-name="Layer 1"><circle class="cls-1" cx="224.86" cy="224.86" r="214.86"/><circle class="cls-2" cx="224.86" cy="224.86" r="214.86"/><path class="cls-3" d="M63.86,261.26a30.51,30.51,0,0,0,15.07,28.18L209,366.19a30.75,30.75,0,0,0,31.23,0l130.1-76.75c12-7.09,15.62-20.05,15.54-32.42l-.5-70.29-101.89-2.38-43-25.84a30.71,30.71,0,0,0-31.64,0l-39.32,23.6L64.07,187.87Z"/><path class="cls-4" d="M370.36,214.58l-130.1,76.75a30.75,30.75,0,0,1-31.23,0L78.93,214.58a30.73,30.73,0,0,1-.2-52.82l130.1-78.11a30.71,30.71,0,0,1,31.64,0l130.1,78.11A30.73,30.73,0,0,1,370.36,214.58Z"/><path class="cls-5" d="M233.88,147.63c5.71-.16,10.14,5.43,11,12S243.6,173.2,236,173.92s-11.28-5.15-11.71-12.72S228.74,147.77,233.88,147.63Z"/><path class="cls-5" d="M259.31,149.63c6.72.19,9,6.14,8.29,13.29s-4.43,9.14-7.72,9.28-11.28-4.57-11.14-12S254.17,149.49,259.31,149.63Z"/><path class="cls-5" d="M282.88,156.2c7.06.74,9.14,9.29,5.86,15.57s-8,5.86-10.72,5.15-7.71-6.15-6.14-12.29S276,155.49,282.88,156.2Z"/><path class="cls-5" d="M230.45,184.92c7.07-7.69,26.72-10.72,37.57-7s15,7.57,16.58,16,4,37-4.29,49.14-15.29,17-25.14,14.43-12-17-8-23.29c3.05-4.8,7.28-6.71,9.57-10.28s1.43-10.29-1.72-10.43c-2.58-.12-8.14,2.86-14.85.71s-9.29-8.43-10.43-13.57S227.17,188.49,230.45,184.92Z"/><path class="cls-5" d="M178.24,117.62c-4.85,3-5.46,10.13-2.54,16.08s8.57,10.6,15.27,7,6.57-10.52,2.74-17.07S182.6,114.9,178.24,117.62Z"/><path class="cls-5" d="M158.15,133.34c-5.5,3.86-4.11,10.09.43,15.65s8.74,5.17,11.56,3.48,6.88-10.05,2.66-16.16S162.35,130.38,158.15,133.34Z"/><path class="cls-5" d="M142.13,151.84c-5.48,4.51-2.49,12.79,3.72,16.21s9.9.47,11.77-1.63,3-9.38-1.67-13.63S147.45,147.45,142.13,151.84Z"/><path class="cls-5" d="M201.69,146.81c-10.14-2.5-28.18,5.83-35.18,14.92s-8.32,14.6-5,22.49,17.11,33.05,30.72,38.6,22.14,5.72,28.93-1.87.61-20.8-6.19-23.83c-5.2-2.31-9.78-1.57-13.66-3.28s-6.88-7.79-4.33-9.64c2.08-1.53,8.36-2.12,12.77-7.61s3.09-12.16,1.2-17.08S206.41,148,201.69,146.81Z"/></g></g></svg>